<svg xmlns="http://www.w3.org/2000/svg" version="1.1" xmlns:xlink="http://www.w3.org/1999/xlink" xmlns:svgjs="http://svgjs.dev/svgjs" width="1500" height="1500" viewBox="0 0 1500 1500"><rect width="1500" height="1500" fill="#000000"></rect><g transform="matrix(0.6666666666666666,0,0,0.6666666666666666,249.34790209790208,502.96959574468093)"><svg viewBox="0 0 286 141" data-background-color="#0c1d36" preserveAspectRatio="xMidYMid meet" height="739" width="1500" xmlns="http://www.w3.org/2000/svg" xmlns:xlink="http://www.w3.org/1999/xlink"><g id="tight-bounds" transform="matrix(1,0,0,1,0.18650000000002365,0.19949999999997203)"><svg viewBox="0 0 285.6268595898673 140.60052000000002" height="140.60052000000002" width="285.6268595898673"><g><svg viewBox="0 0 285.6268595898673 140.60052000000002" height="140.60052000000002" width="285.6268595898673"><g><svg viewBox="0 0 285.6268595898673 140.60052000000002" height="140.60052000000002" width="285.6268595898673"><g><path d="M0 140.601v-140.601h285.627v140.601z" fill="#ffffff" stroke="transparent" stroke-width="0" rx="0%" data-fill-palette-color="tertiary"></path><path d="M3.283 137.317v-134.034h279.061v134.034z" fill="#000000" stroke="transparent" stroke-width="0" rx="0%" data-fill-palette-color="quaternary"></path><path d="M9.85 130.751v-120.901h265.927v120.901z" fill="#ffffff" stroke="transparent" stroke-width="0" data-fill-palette-color="tertiary"></path></g><g transform="matrix(1,0,0,1,19.699740000000013,19.69974)" id="textblocktransform"><svg viewBox="0 0 246.2273795898673 101.20104" height="101.20104" width="246.2273795898673" id="textblock"><g><svg viewBox="0 0 246.2273795898673 101.20104" height="101.20104" width="246.2273795898673"><g transform="matrix(1,0,0,1,0,0)"><svg width="246.2273795898673" viewBox="6.45 -37.1 100.85 41.45" height="101.20104" data-palette-color="#0c1d36"><path d="M39.05-27.55L39.05-27.55Q39.05-25.15 37.98-23.03 36.9-20.9 35-19.23 33.1-17.55 30.55-16.4 28-15.25 25-14.85L25-14.85Q25.75-12.6 26.83-10.23 27.9-7.85 29.15-5.65 30.4-3.45 31.75-1.6 33.1 0.25 34.4 1.45L34.4 1.45Q34.15 1.95 33.68 2.45 33.2 2.95 32.58 3.38 31.95 3.8 31.28 4.08 30.6 4.35 30 4.35L30 4.35Q28.9 4.35 27.9 3.3 26.9 2.25 25.88-0.03 24.85-2.3 23.73-5.93 22.6-9.55 21.25-14.65L21.25-14.65Q20.7-14.65 20.15-14.65 19.6-14.65 19.3-14.75L19.3-14.75Q18.95-14.95 18.55-15.45L18.55-15.45Q17.2-12.55 16.15-10 15.1-7.45 14.28-5.08 13.45-2.7 12.83-0.48 12.2 1.75 11.75 4.05L11.75 4.05Q10.05 3.65 8.8 2.6 7.55 1.55 6.45-0.35L6.45-0.35Q6.65-0.8 6.88-1.23 7.1-1.65 7.45-2.43 7.8-3.2 8.33-4.4 8.85-5.6 9.73-7.6 10.6-9.6 11.83-12.5 13.05-15.4 14.8-19.55L14.8-19.55Q15.6-21.4 16.18-22.8 16.75-24.2 17.2-25.48 17.65-26.75 18.03-28.03 18.4-29.3 18.8-30.95L18.8-30.95Q16.5-30.15 14.53-29.18 12.55-28.2 11.25-27.1L11.25-27.1Q10.8-27.4 10.33-28 9.85-28.6 9.45-29.33 9.05-30.05 8.75-30.8 8.45-31.55 8.4-32.15L8.4-32.15Q9.9-33.15 12.08-34 14.25-34.85 16.7-35.48 19.15-36.1 21.7-36.45 24.25-36.8 26.45-36.8L26.45-36.8Q32.45-36.8 35.75-34.33 39.05-31.85 39.05-27.55ZM26.25-32.7L26.85-31.75Q26.5-31.3 25.75-29.95 25-28.6 24.03-26.73 23.05-24.85 21.98-22.65 20.9-20.45 19.9-18.3L19.9-18.3Q23.65-18.3 26.8-19 29.95-19.7 32.25-20.98 34.55-22.25 35.83-23.98 37.1-25.7 37.1-27.8L37.1-27.8Q37.1-30.3 35.3-31.63 33.5-32.95 29.75-32.95L29.75-32.95Q28.9-32.95 28.05-32.88 27.2-32.8 26.25-32.7L26.25-32.7ZM51.25-15.85L51.25-15.85Q54.35-20.45 57.37-24.33 60.4-28.2 63.15-31 65.9-33.8 68.2-35.35 70.5-36.9 72.2-36.9L72.2-36.9Q72.85-36.9 73.62-36.4 74.4-35.9 75.07-35.1 75.75-34.3 76.2-33.38 76.65-32.45 76.65-31.6L76.65-31.6Q73.55-30.6 70.57-28.98 67.6-27.35 64.87-25.23 62.15-23.1 59.67-20.5 57.2-17.9 55.2-14.95L55.2-14.95Q56-12.9 57.17-10.58 58.35-8.25 59.75-6.08 61.15-3.9 62.75-2.05 64.35-0.2 66 0.9L66 0.9Q65.75 1.45 65.15 1.95 64.55 2.45 63.85 2.88 63.15 3.3 62.37 3.55 61.6 3.8 60.95 3.8L60.95 3.8Q59.65 3.8 58.55 2.58 57.45 1.35 56.32-1.13 55.2-3.6 53.97-7.28 52.75-10.95 51.25-15.85ZM43.7 4.05L43.7 4.05Q41.8 3.6 40.55 2.48 39.3 1.35 38.25-0.35L38.25-0.35Q38.7-1.3 39.32-2.85 39.95-4.4 40.85-6.68 41.75-8.95 43-12.13 44.25-15.3 45.9-19.55L45.9-19.55Q46.95-22.25 47.62-24.1 48.3-25.95 48.77-27.73 49.25-29.5 49.7-31.65 50.15-33.8 50.75-37.1L50.75-37.1Q52.85-36.7 54.57-35.25 56.3-33.8 57.55-31.75L57.55-31.75Q57-31.05 56.27-29.63 55.55-28.2 54.65-26.2 53.75-24.2 52.65-21.75 51.55-19.3 50.35-16.55L50.35-16.55Q47.65-10.55 46.1-5.58 44.55-0.6 43.7 4.05ZM82.15-30.3L82.15-30.3Q80.15-30.3 79.07-31.43 78-32.55 78-34.15L78-34.15Q78-34.55 78.12-35.1 78.25-35.65 78.45-36.05L78.45-36.05Q79.1-35.75 80.37-35.63 81.65-35.5 83.35-35.5L83.35-35.5Q85.9-35.5 89.12-35.73 92.35-35.95 95.3-36.2 98.25-36.45 100.5-36.68 102.75-36.9 103.4-36.9L103.4-36.9Q105.25-36.9 106.07-35.52 106.9-34.15 107.3-31.85L107.3-31.85Q106-31.95 104.72-32.02 103.45-32.1 102.55-32.1L102.55-32.1Q100.95-32.1 99.32-32 97.7-31.9 96.05-31.7L96.05-31.7Q95.35-30.25 94.5-28.28 93.65-26.3 92.82-24.15 92-22 91.25-19.88 90.5-17.75 89.95-16.05L89.95-16.05Q88.85-12.75 88.02-9.95 87.2-7.15 86.57-4.73 85.95-2.3 85.5-0.1 85.05 2.1 84.7 4.2L84.7 4.2Q81.35 3.7 79.1 0L79.1 0Q79.5-1.55 80.07-3.38 80.65-5.2 81.42-7.53 82.2-9.85 83.25-12.8 84.3-15.75 85.65-19.5L85.65-19.5Q86.15-20.9 86.7-22.43 87.25-23.95 87.77-25.45 88.3-26.95 88.72-28.35 89.15-29.75 89.45-30.9L89.45-30.9Q87.35-30.65 85.47-30.48 83.6-30.3 82.15-30.3Z" opacity="1" transform="matrix(1,0,0,1,0,0)" fill="#000000" class="wordmark-text-0" data-fill-palette-color="quaternary" id="text-0"></path></svg></g></svg></g></svg></g></svg></g><g></g></svg></g><defs></defs></svg><rect width="285.6268595898673" height="140.60052000000002" fill="none" stroke="none" visibility="hidden"></rect></g></svg></g></svg>